<?xml version="1.0" encoding="utf-8"?>
<!-- Generator: Adobe Illustrator 16.0.0, SVG Export Plug-In . SVG Version: 6.00 Build 0)  -->
<!DOCTYPE svg PUBLIC "-//W3C//DTD SVG 1.1//EN" "http://www.w3.org/Graphics/SVG/1.1/DTD/svg11.dtd">
<svg version="1.1" id="a706cf1c-1654-439b-8fcf-310eb7aa0e00"
	 xmlns="http://www.w3.org/2000/svg" xmlns:xlink="http://www.w3.org/1999/xlink" x="0px" y="0px" width="1120.592px"
	 height="777.916px" viewBox="0 0 1120.592 777.916" enable-background="new 0 0 1120.592 777.916" xml:space="preserve">
<title>not found</title>
<path fill="#F2F2F2" d="M523.976,343.122c0,151.012-89.773,203.739-200.515,203.739c-110.742,0-200.516-52.728-200.516-203.739
	S323.461,0,323.461,0S523.976,192.11,523.976,343.122z"/>
<polygon fill="#3F3D56" points="316.156,523.761 318.21,397.379 403.674,241.024 318.532,377.552 319.455,320.725 378.357,207.605 
	319.699,305.687 319.699,305.687 321.359,203.481 384.433,113.423 321.621,187.409 322.658,0 316.138,248.096 316.674,237.861 
	252.547,139.704 315.646,257.508 309.671,371.654 309.493,368.625 235.565,265.329 309.269,379.328 308.522,393.603 
	308.388,393.818 308.449,394.99 293.29,684.59 313.544,684.59 315.974,535.006 389.496,421.285 "/>
<path fill="#F2F2F2" d="M1120.592,404.971c0,123.61-73.484,166.771-164.132,166.771s-164.131-43.16-164.131-166.771
	c0-123.609,164.131-280.861,164.131-280.861S1120.592,281.362,1120.592,404.971z"/>
<polygon fill="#3F3D56" points="950.482,552.834 952.161,449.384 1022.118,321.4 952.426,433.154 953.182,386.639 1001.396,294.044 
	953.382,374.329 953.382,374.329 954.74,290.669 1006.368,216.952 954.953,277.514 955.804,124.11 950.467,327.188 950.906,318.811 
	898.413,238.464 950.064,334.893 945.173,428.327 945.027,425.847 884.514,341.295 944.844,434.608 944.232,446.294 
	944.122,446.469 944.173,447.428 931.764,684.478 948.343,684.478 950.331,562.037 1010.514,468.952 "/>
<ellipse fill="#709B98" cx="554.592" cy="680.479" rx="554.593" ry="28.034"/>
<ellipse fill="#709B98" cx="892.445" cy="726.797" rx="94.988" ry="4.802"/>
<ellipse fill="#F2F2F2" cx="548.719" cy="773.115" rx="94.989" ry="4.801"/>
<ellipse fill="#709B98" cx="287.945" cy="734.279" rx="217.014" ry="10.97"/>
<circle fill="#F2F2F2" cx="97.084" cy="566.27" r="79"/>
<rect x="60.102" y="627.982" transform="matrix(-0.9999 -0.0118 0.0118 -0.9999 136.5346 1299.7681)" fill="#F2F2F2" width="24" height="42.999"/>
<rect x="108.099" y="628.547" transform="matrix(-0.9999 -0.0118 0.0118 -0.9999 232.5178 1301.4662)" fill="#2F2E41" width="24" height="43"/>
<ellipse transform="matrix(-0.9999 -0.0118 0.0118 -0.9999 151.7583 1344.0437)" fill="#F2F2F2" cx="79.842" cy="671.574" rx="20" ry="7.5"/>
<ellipse transform="matrix(-0.9999 -0.0118 0.0118 -0.9999 247.7777 1343.7407)" fill="#2F2E41" cx="127.85" cy="671.14" rx="20" ry="7.5"/>
<circle fill="#2F2E41" cx="99.32" cy="546.295" r="27"/>
<circle fill="#F2F2F2" cx="99.32" cy="546.295" r="9"/>
<path fill="#1CC5BC" d="M21.322,491.904c-6.041-28.641,14.688-57.265,46.301-63.934c31.613-6.668,62.139,11.144,68.181,39.784
	c6.041,28.641-14.979,38.93-46.592,45.599S27.364,520.546,21.322,491.904z"/>
<path fill="#1CC5BC" d="M217.592,610.343c0,55.075-32.739,74.306-73.13,74.306c-0.936,0-1.87-0.01-2.803-0.031
	c-1.871-0.04-3.725-0.129-5.556-0.254c-36.451-2.579-64.771-22.799-64.771-74.021c0-53.009,67.738-119.896,72.827-124.847
	l0.009-0.009c0.196-0.191,0.294-0.285,0.294-0.285S217.592,555.266,217.592,610.343z"/>
<path fill="#3F3D56" d="M141.798,676.223l26.747-37.374l-26.814,41.478l-0.071,4.29c-1.871-0.04-3.725-0.129-5.556-0.254
	l2.883-55.103l-0.022-0.428l0.049-0.08l0.271-5.204l-26.88-41.58l26.965,37.677l0.063,1.105l2.179-41.634l-23.013-42.965
	l23.293,35.658l2.269-86.314l0.009-0.294v0.285l-0.379,68.064l22.911-26.983l-23.005,32.847l-0.605,37.275l21.392-35.774
	l-21.48,41.26l-0.339,20.723l31.056-49.791l-31.172,57.022L141.798,676.223z"/>
<circle fill="#F2F2F2" cx="712.485" cy="565.416" r="79"/>
<rect x="702.073" y="630.782" transform="matrix(-0.9559 0.2938 -0.2938 -0.9559 1588.2623 1066.0031)" fill="#2F2E41" width="24" height="43.001"/>
<rect x="747.954" y="616.686" transform="matrix(-0.9559 0.2938 -0.2938 -0.9559 1673.8584 1024.9539)" fill="#2F2E41" width="24" height="43"/>
<ellipse transform="matrix(-0.2938 -0.9559 0.9559 -0.2938 300.7332 1564.1154)" fill="#2F2E41" cx="728.183" cy="670.961" rx="7.5" ry="20"/>
<ellipse transform="matrix(-0.2938 -0.9559 0.9559 -0.2938 374.1638 1588.2375)" fill="#2F2E41" cx="773.771" cy="655.904" rx="7.5" ry="20"/>
<circle fill="#2F2E41" cx="708.522" cy="545.711" r="27"/>
<circle fill="#F2F2F2" cx="708.522" cy="545.711" r="9"/>
<path fill="#1CC5BC" d="M617.652,517.701c-14.49-25.433-3.479-59.016,24.594-75.009s62.576-8.341,77.065,17.093
	c14.489,25.433-2.391,41.644-30.463,57.637C660.775,533.415,632.141,543.135,617.652,517.701z"/>
<path fill="#1CC5BC" d="M571.592,600.257c0,50.558-30.054,68.21-67.13,68.21c-0.859,0-1.717-0.01-2.572-0.028
	c-1.719-0.037-3.42-0.119-5.101-0.233c-33.461-2.368-59.457-20.929-59.457-67.948c0-48.659,62.181-110.059,66.852-114.603
	l0.008-0.009c0.181-0.176,0.271-0.262,0.271-0.262S571.592,549.7,571.592,600.257z"/>
<path fill="#3F3D56" d="M502.016,660.732l24.553-34.307L501.954,664.5l-0.064,3.938c-1.719-0.037-3.42-0.119-5.101-0.233
	l2.646-50.582l-0.021-0.393l0.045-0.073l0.249-4.777l-24.675-38.168l24.753,34.585l0.057,1.015l2-38.218l-21.125-39.439
	l21.383,32.732l2.082-79.232l0.008-0.271v0.262l-0.348,62.479l21.031-24.769l-21.117,30.151l-0.556,34.218l19.637-32.839
	L503.12,592.76l-0.311,19.023l28.508-45.707l-28.614,52.345L502.016,660.732z"/>
<path fill="#1CC5BC" d="M835.592,621.343c0,55.075-32.74,74.306-73.13,74.306c-0.936,0-1.87-0.01-2.803-0.031
	c-1.871-0.04-3.725-0.129-5.557-0.254c-36.451-2.579-64.771-22.799-64.771-74.021c0-53.009,67.738-119.896,72.827-124.847
	l0.009-0.009c0.196-0.191,0.294-0.285,0.294-0.285S835.592,566.266,835.592,621.343z"/>
<path fill="#3F3D56" d="M759.798,687.223l26.746-37.374l-26.813,41.478l-0.071,4.29c-1.871-0.04-3.725-0.129-5.556-0.254
	l2.883-55.103l-0.022-0.428l0.049-0.08l0.271-5.204l-26.881-41.58l26.966,37.677l0.063,1.105l2.179-41.634l-23.014-42.965
	l23.294,35.658l2.269-86.314l0.009-0.294v0.285l-0.379,68.064l22.911-26.983l-23.005,32.847l-0.606,37.275l21.392-35.774
	L761,613.176l-0.338,20.723l31.056-49.791l-31.172,57.022L759.798,687.223z"/>
<ellipse transform="matrix(-0.9035 -0.4285 0.4285 -0.9035 1042.5442 1426.259)" fill="#F2F2F2" cx="681.813" cy="595.78" rx="39.5" ry="12.4"/>
<ellipse transform="matrix(-0.9282 -0.372 0.372 -0.9282 -79.3974 1166.2415)" fill="#F2F2F2" cx="72.813" cy="590.781" rx="39.5" ry="12.401"/>
</svg>
